<svg xmlns="http://www.w3.org/2000/svg" viewBox="0 0 64 64" fill="none">
  <defs>
    <radialGradient id="bg" cx="50%" cy="40%" r="75%">
      <stop offset="0%" stop-color="#262626"/>
      <stop offset="100%" stop-color="#111111"/>
    </radialGradient>
    <linearGradient id="gold" x1="0%" y1="0%" x2="100%" y2="100%">
      <stop offset="0%" stop-color="#8a6512"/>
      <stop offset="38%" stop-color="#ffd84d"/>
      <stop offset="58%" stop-color="#fff2b8"/>
      <stop offset="78%" stop-color="#d8ad20"/>
      <stop offset="100%" stop-color="#8a6512"/>
    </linearGradient>
    <linearGradient id="rim" x1="0%" y1="0%" x2="100%" y2="100%">
      <stop offset="0%" stop-color="#40661f"/>
      <stop offset="100%" stop-color="#b8d96b"/>
    </linearGradient>
  </defs>

  <rect width="64" height="64" rx="14" fill="#090909"/>
  <circle cx="32" cy="32" r="28" fill="url(#bg)" stroke="url(#rim)" stroke-width="1.6"/>
  <circle cx="32" cy="32" r="24" fill="none" stroke="#ffffff" stroke-width="0.8" opacity="0.16"/>

  <g transform="translate(32 33)">
    <ellipse cx="0" cy="17" rx="11" ry="2.2" fill="#5f4910" opacity="0.8"/>
    <ellipse cx="0" cy="16" rx="9.8" ry="1.8" fill="url(#gold)"/>

    <path d="M-6 15.5C-5 10 -4 6 -2.5 3C-1.5 1 0 0 0 -1V-5H4V-1C4 0 5.5 1 6.5 3C8 6 9 10 10 15.5H-6Z" fill="url(#gold)"/>
    <path d="M-4.5 14.5C-3.8 10.2 -3.1 7.1 -2 5.2C-1.3 3.9 -0.7 3 0 2.2V0H2V2.2C2.7 3 3.3 3.9 4 5.2C5.1 7.1 5.8 10.2 6.5 14.5H-4.5Z" fill="#fff2b8" opacity="0.28"/>

    <path d="M-3.2 -4H3.2V-2.2H-3.2Z" fill="#8a6512"/>
    <path d="M-1 -8H1V-4H-1Z" fill="url(#gold)"/>
    <path d="M-2.7 -6.4H2.7V-5H-2.7Z" fill="url(#gold)"/>

    <circle cx="0" cy="7" r="3.2" fill="#5f4910" opacity="0.55"/>
    <circle cx="0" cy="7" r="2.3" fill="#fff2b8" opacity="0.3"/>
  </g>
</svg>