<svg xmlns="http://www.w3.org/2000/svg" viewBox="0 0 200 200" fill="none">
  <defs>
    <radialGradient id="bg" cx="50%" cy="38%" r="72%">
      <stop offset="0%" stop-color="#2a2a2a"/>
      <stop offset="100%" stop-color="#111111"/>
    </radialGradient>
    <linearGradient id="gold" x1="0%" y1="0%" x2="100%" y2="100%">
      <stop offset="0%" stop-color="#8a6512"/>
      <stop offset="38%" stop-color="#ffd84d"/>
      <stop offset="58%" stop-color="#fff2b8"/>
      <stop offset="78%" stop-color="#d8ad20"/>
      <stop offset="100%" stop-color="#8a6512"/>
    </linearGradient>
    <linearGradient id="goldSoft" x1="0%" y1="0%" x2="100%" y2="0%">
      <stop offset="0%" stop-color="#b68c1f"/>
      <stop offset="50%" stop-color="#f5cf57"/>
      <stop offset="100%" stop-color="#b68c1f"/>
    </linearGradient>
    <filter id="softGlow" x="-40%" y="-40%" width="180%" height="180%">
      <feGaussianBlur stdDeviation="1.2" result="blur"/>
      <feMerge>
        <feMergeNode in="blur"/>
        <feMergeNode in="SourceGraphic"/>
      </feMerge>
    </filter>
  </defs>

  <circle cx="100" cy="100" r="96" fill="#090909"/>
  <circle cx="100" cy="100" r="90" fill="url(#bg)" stroke="#d4af37" stroke-width="2"/>
  <circle cx="100" cy="100" r="83" fill="none" stroke="#6f5610" stroke-width="1" opacity="0.8"/>

  <g transform="translate(100 104)" filter="url(#softGlow)">
    <ellipse cx="0" cy="50" rx="44" ry="9" fill="#5f4910" opacity="0.78"/>
    <ellipse cx="0" cy="48.5" rx="40" ry="7.2" fill="url(#goldSoft)"/>

    <ellipse cx="0" cy="40" rx="34" ry="6.5" fill="#5f4910" opacity="0.78"/>
    <ellipse cx="0" cy="38.6" rx="30" ry="5.2" fill="url(#goldSoft)"/>

    <path d="M-18 39C-16 24 -15 13 -11 6C-9 2 -6 0 -4 -2V-10H4V-2C6 0 9 2 11 6C15 13 16 24 18 39H-18Z" fill="url(#gold)"/>
    <path d="M-12 37.5C-10.5 25.5 -9.5 16 -6.5 10.5C-4.8 7.4 -3.3 5.7 -2 4.4V-0.2H2V4.4C3.3 5.7 4.8 7.4 6.5 10.5C9.5 16 10.5 25.5 12 37.5H-12Z" fill="#fff3bf" opacity="0.28"/>

    <path d="M-7 -8H7V-4H-7Z" fill="#8a6512"/>
    <path d="M-2 -16H2V-8H-2Z" fill="url(#gold)"/>
    <path d="M-5.5 -12H5.5V-9H-5.5Z" fill="url(#gold)"/>

    <circle cx="0" cy="21" r="5.5" fill="#5f4910" opacity="0.6"/>
    <circle cx="0" cy="21" r="4" fill="#fff2b8" opacity="0.35"/>
  </g>

  <circle cx="100" cy="100" r="87" stroke="#d4af37" stroke-width="1.5" opacity="0.45"/>
</svg>
