<svg xmlns="http://www.w3.org/2000/svg" viewBox="0 0 64 64" fill="none">
  <defs>
    <linearGradient id="bg" x1="0%" y1="0%" x2="0%" y2="100%">
      <stop offset="0%" stop-color="#4F8AF7"/>
      <stop offset="100%" stop-color="#3061DF"/>
    </linearGradient>
    <linearGradient id="pawn" x1="20%" y1="0%" x2="80%" y2="100%">
      <stop offset="0%" stop-color="#675E8D"/>
      <stop offset="40%" stop-color="#4A446F"/>
      <stop offset="100%" stop-color="#312C50"/>
    </linearGradient>
    <filter id="shadow" x="-20%" y="-20%" width="140%" height="140%">
      <feDropShadow dx="0" dy="4" stdDeviation="3" flood-opacity="0.3" />
    </filter>
  </defs>

  <rect width="64" height="64" rx="16" fill="url(#bg)"/>
  
  <g transform="translate(16 11)" filter="url(#shadow)">
    <circle cx="16" cy="7" r="5.5" fill="url(#pawn)"/>
    <path d="M 12 24 C 12 16, 14 11, 16 11 C 18 11, 20 16, 20 24 Z" fill="url(#pawn)"/>
    <rect x="10" y="24" width="12" height="3" rx="1.5" fill="url(#pawn)"/>
    <path d="M 11 27 C 9 32, 6 36, 4 37 C 2 38, 2 40, 4 40 L 28 40 C 30 40, 30 38, 28 37 C 26 36, 23 32, 21 27 Z" fill="url(#pawn)"/>
    
    <circle cx="14" cy="5" r="1.5" fill="#ffffff" opacity="0.15"/>
    <path d="M 13.5 13 C 13.5 18, 14.5 24, 14.5 24 L 15.5 24 C 15.5 24, 14.5 18, 14.5 13 Z" fill="#ffffff" opacity="0.1"/>
  </g>
</svg>