<svg xmlns="http://www.w3.org/2000/svg" viewBox="0 0 200 200" fill="none">
  <defs>
    <radialGradient id="bg" cx="50%" cy="40%" r="75%">
      <stop offset="0%" stop-color="#2b2b2b"/>
      <stop offset="100%" stop-color="#111111"/>
    </radialGradient>
    <linearGradient id="gold" x1="0%" y1="0%" x2="100%" y2="100%">
      <stop offset="0%" stop-color="#8a6512"/>
      <stop offset="38%" stop-color="#ffd84d"/>
      <stop offset="58%" stop-color="#fff2b8"/>
      <stop offset="78%" stop-color="#d8ad20"/>
      <stop offset="100%" stop-color="#8a6512"/>
    </linearGradient>
    <linearGradient id="rim" x1="0%" y1="0%" x2="100%" y2="100%">
      <stop offset="0%" stop-color="#40661f"/>
      <stop offset="100%" stop-color="#b8d96b"/>
    </linearGradient>
  </defs>

  <circle cx="100" cy="100" r="92" fill="#090909"/>
  <circle cx="100" cy="100" r="86" fill="url(#bg)" stroke="url(#rim)" stroke-width="2.5"/>
  <circle cx="100" cy="100" r="79" fill="none" stroke="#ffffff" stroke-width="1" opacity="0.12"/>

  <g transform="translate(100 103)">
    <ellipse cx="0" cy="45" rx="30" ry="6" fill="#5f4910" opacity="0.75"/>
    <ellipse cx="0" cy="43.5" rx="27" ry="4.8" fill="url(#gold)"/>

    <path d="M-14 43C-12 30 -11 21 -8 14C-6 10 -3 8 0 5C3 8 6 10 8 14C11 21 12 30 14 43H-14Z" fill="url(#gold)"/>
    <path d="M-9.5 41C-8 31 -7.2 24 -5 19C-3.8 16 -2.2 14.2 0 12C2.2 14.2 3.8 16 5 19C7.2 24 8 31 9.5 41H-9.5Z" fill="#fff2b8" opacity="0.28"/>

    <path d="M-5 -5H5V-1.8H-5Z" fill="#8a6512"/>
    <path d="M-1.5 -12H1.5V-5H-1.5Z" fill="url(#gold)"/>
    <path d="M-4 -9H4V-6.6H-4Z" fill="url(#gold)"/>

    <circle cx="0" cy="25" r="4" fill="#5f4910" opacity="0.55"/>
    <circle cx="0" cy="25" r="2.8" fill="#fff2b8" opacity="0.28"/>
  </g>

  <circle cx="100" cy="100" r="83" stroke="#d4af37" stroke-width="1.2" opacity="0.35"/>
</svg>
